<svg xmlns="http://www.w3.org/2000/svg" fill-rule="evenodd" stroke-linejoin="round" stroke-miterlimit="2" viewBox="0 0 1000 1000"><style>.B{fill:#ffa64d}.C{fill:#8ba949}.D{fill:#d64330}</style><g fill-rule="nonzero"><path d="M344.017 56.846l15.817 67.013 67.22-15.56-15.817-67.013-42.872-26.556zm321.333 7.262l-28.512 62.448 62.85 28.63L728.2 92.53l-17.7-47.303z" class="B"/><path d="M586.89 41.494l-19.563 65.975 66.39 19.294 19.355-65.975-24.142-44.2z" class="C"/><path d="M504.89 32.158l-7.284 68.464 68.47 7.262 7.492-68.465L541.727.207z" class="B"/><path d="M422.893 37.344l3.538 68.673 68.886-3.527-3.538-68.673L454.1 0z" class="C"/><path d="M725.286 179.46l-7.284-63.278s3.954-23.03 25.807-20.332c21.644 2.904 22.476 32.157 22.476 32.157s22.27-3.942 30.8 12.448-7.284 30.083-16.44 32.573-55.36 6.432-55.36 6.432zM893.652 538.6l50.157-39.42s21.852-8.714 30.8 11.203S959 546.266 959 546.266s14.984 16.805 5.62 32.78-29.552 9.75-36.42 3.32c-6.66-6.64-34.548-43.776-34.548-43.776zm-224.35 322l59.937 21.784s18.94 13.9 6.66 31.95-38.918 5.602-38.918 5.602-6.45 21.577-24.974 21.992-23.933-19.917-21.852-29.046 19.147-52.282 19.147-52.282zm-338.2-722.198l-60.353-20.54s-19.147-13.485-7.284-31.95 38.7-6.43 38.7-6.43 6.036-21.785 24.558-22.407 24.14 19.502 22.477 28.63c-1.873 9.128-18.107 52.697-18.107 52.697z" class="D"/><path d="M810 150.415l-51.405 45.85 45.994 51.452 51.404-46.058 2.914-50.415zM961.915 427.8l-68.887 4.98 4.995 68.672 68.886-4.98L1000 458.3z" class="B"/><path d="M944.85 349.17l-67.43 14.523 14.57 67.22 67.43-14.523 27.472-42.53z" class="C"/><path d="M911.134 275.104l-63.892 26.348 26.43 63.486 63.892-26.35 19.355-46.473z" class="B"/><path d="M864.932 209.336l-58.897 36.1 36.213 58.713 58.897-36.1 11.654-49.17z" class="C"/><path d="M959.417 594.606l-64.932-23.03-23.1 64.938 64.932 23.03 45.786-21.785zM798.335 859.96l-39.126-56.64-56.816 39.004 39.126 56.64 49.948 9.128z" class="B"/><path d="M853.694 803.942l-48.283-49.17-49.324 48.133 48.283 49.17 50.781.622z" class="C"/><path d="M901.145 741.08l-55.776-40.872-40.8 55.602 55.567 40.664 49.948-7.47z" class="B"/><path d="M935.484 665.975l-62.851-28.838-28.72 62.448 62.643 28.838 47.45-17.427z" class="C"/><path d="M656.4 942.946l-15.817-67.012L573.36 891.7l15.817 67.013 43.08 26.556zm-321.332-6.43l28.512-62.864-62.852-28.423-28.512 62.863 17.898 47.096z" class="B"/><path d="M413.736 958.92l19.355-65.975-66.4-19.502-19.354 66.183 24.35 44.2z" class="C"/><path d="M495.734 968.05l7.284-68.465-68.68-7.26-7.284 68.464L458.897 1000z" class="B"/><path d="M577.732 962.656l-3.747-68.673L505.1 897.5l3.746 68.88 37.67 33.6z" class="C"/><path d="M275.13 820.954l7.284 63.07s-3.954 23.236-25.806 20.332c-21.644-2.905-22.477-32.158-22.477-32.158s-22.268 3.942-30.8-12.448 7.284-30.083 16.233-32.573c9.157-2.074 55.567-6.224 55.567-6.224zM105.93 462.24l-49.948 39.42s-21.852 8.713-30.8-11.204 15.6-35.892 15.6-35.892-14.985-16.805-5.62-32.78 29.552-9.75 36.42-3.32c6.66 6.64 34.34 43.776 34.34 43.776z" class="D"/><path d="M190.427 850.207l51.404-45.85-46.2-51.245-51.405 45.85-2.706 50.415zM38.085 573.237l68.887-5.187-5.203-68.672-68.887 5.186L0 542.74z" class="B"/><path d="M55.15 651.867l67.43-14.73-14.777-67.22-67.43 14.73L13.11 626.97z" class="C"/><path d="M90.447 725.976l62.853-28.26-28.356-62.865L61.9 663.325l-17.718 47.238z" class="B"/><path d="M135.484 791.286l58.69-36.1-36.42-58.507-58.69 36.1-11.654 49.17z" class="C"/><path d="M40.166 406.224l64.933 23.03 23.1-64.938-65.14-23.03-45.577 21.785zM200.624 140.87l39.334 56.432 56.816-39.212-39.334-56.43-49.74-9.13z" class="B"/><path d="M145.473 196.68l48.284 49.17 49.323-48.133-48.283-49.17-50.78-.415z" class="C"/><path d="M98.23 259.75l55.775 40.664 40.79-55.394-55.775-40.872-49.948 7.677z" class="B"/><path d="M64.1 335.062l62.643 28.63 28.928-62.448-62.85-28.838-47.45 17.634z" class="C"/><path d="M254.296 294.737L294 240.32l26.18-18.312-.484-24.525 32.928-43.22s5.35 26.594 50.717 14.64 95.928-17.515 95.928-17.515l.967 49.05 19.295-.378 43.392 10.214L589.19 196.3l84.616 20.7 51.993 79.32 10.705 53.43 44.013 41.712 64.615-14.736.484 24.525-98.903 111.382 8.25 51.312-3.767 53.713-47.423 30.035 9.913 13.275-23.328 40.627-18.77 27.067-28.194 38.557-69.486 12.426-27.897-68.727-15.44-48.767-24.602-24.052-1.2-60.35 18.72-29.472-15.31-42.274-26.663-6.213 8.723-47.075-53.13-14.594-101.06 1.98-53.48-32.386-27.105-28.574 1.53-44.77 11.533-26.926z" class="D"/><path d="M197.476 438.06l-3.568-.878c-2.677-.585-4.46-.878-5.353-.585-1.784.292-2.676.877-3.27 2.34-.594 1.17-.594 3.22 0 5.56l-5.65.877-3.568-22.822 5.65-.878c.595 4.4 5.055 7.315 13.084 9.07l57.685 12.874.892 5.852-50.846 29.845c-5.055 2.926-8.03 5.266-8.92 7.315-.892 1.755-1.2 3.5-.892 5.266l-5.65.878-5.353-34.234 5.65-.878c.595 3.22 1.2 4.975 1.784 5.56s1.487.878 2.38.878 1.784-.586 2.973-1.463l1.487-.878 4.758-2.634zm6.244 1.17l2.676 16.678 19.625-11.704zm25.572 76.952l-18.436 5.56c-2.973.878-5.054 2.048-5.946 3.5s-.893 3.804.297 7.023l.297 1.463-5.65 1.755-11.002-36 5.65-1.756.298.878c.892 3.22 2.378 5.267 3.865 5.852s3.866.585 6.84-.293l40.142-11.996c2.974-.878 5.055-2.048 5.947-3.5s.892-3.804-.297-7.023l-.297-1.17 5.352-1.756 17.246 55.886-17.84 5.852-1.784-5.56c2.676-1.756 5.055-3.5 6.542-5.267s2.38-3.5 2.38-4.974-.298-3.804-1.2-6.437l-3.27-10.826-23.5 7.022 1.487 5.267c.892 2.633 1.784 4.096 3.27 4.68s3.866.586 7.137-.292l1.784 5.56-23.193 7.022-1.784-5.56c3.568-1.17 5.65-2.633 6.54-3.804.892-1.463.892-3.218 0-5.852zm-1.784 45.06l-3.865.292c-2.676 0-4.46.293-5.352.878-1.487.585-2.38 1.756-2.677 2.926 0 1.17.298 3.22 1.487 5.56l-5.352 2.34-9.515-21.067 5.352-2.34c1.784 4.097 6.84 5.852 14.867 5.56l59.173-2.634 2.38 5.56-40.737 41.84c-4.163 4.096-6.244 7.315-6.542 9.363s0 3.804.595 5.267l-5.352 2.34-14.273-31.6 5.352-2.34c1.2 2.926 2.38 4.4 3.27 4.974s1.784.586 2.676 0c.892-.292 1.487-1.17 2.676-2.048l5.055-4.974zm6.542-.293l7.136 15.508 15.76-16.386zm43.116 70.835l-13.976 9.07c-2.676 1.756-4.163 3.5-4.757 4.974-.298 1.463.297 3.804 2.08 6.73l.595 1.17-4.758 3.218-21.112-31.308 4.758-3.218.892 1.17c2.082 2.926 3.866 4.4 5.352 4.682 1.784.292 3.866-.586 6.542-2.34l34.8-22.823c2.676-1.755 4.163-3.5 4.758-4.974.297-1.463-.298-3.803-2.082-6.73l-.892-1.17 4.758-3.218 15.76 23.115 3.568 5.266c3.57 5.267 5.947 9.07 7.137 11.704s2.08 5.56 2.38 8.778-.298 6.145-1.785 9.07-3.27 4.974-5.947 6.73c-7.136 4.682-14.57 3.804-22.3-2.34 0 2.926-1.784 9.07-5.947 17.848-2.973 7.022-4.757 11.704-4.757 13.752s.297 4.096 1.486 5.852l-4.757 3.22-12.2-18.14c.892-2.926 3.865-9.364 8.92-19.312 2.676-4.974 4.163-8.193 4.758-9.948s.594-3.22.297-4.4c0-.878-1.2-3.22-3.568-6.437zm5.352-3.22c3.27 4.974 5.65 7.9 7.434 9.07s3.865 1.755 6.244 1.755 5.055-1.17 8.03-2.926c4.162-2.633 6.244-5.56 6.54-8.485s-1.2-6.73-4.46-11.4c-.297-.585-.892-1.463-1.784-2.34zM309.28 694.4l-3.568 1.463c-2.378.878-4.163 1.756-4.757 2.34-1.2 1.17-1.784 2.34-1.487 3.5s1.2 2.926 2.973 4.682l-4.162 3.804-16.057-16.678 4.163-3.804c2.973 3.218 8.325 3.218 16.056.293l55-21.36 4.163 4.4L336.636 726c-2.38 5.267-3.57 8.778-2.974 10.826s1.2 3.5 2.38 4.68l-4.163 3.804-24.085-25.163 4.163-3.804c2.08 2.34 3.865 3.5 4.757 3.5s1.784 0 2.38-.877c.595-.586 1.2-1.463 1.784-2.926l.595-1.463 2.38-4.975zm5.947-2.633l11.894 12.3 9.516-20.482zm74.04 68.733c-3.27 4.68-5.055 8.485-5.055 11.996s1.486 6.145 4.46 8.485c3.27 2.34 7.73 2.926 12.786 1.463l2.38 5.267c-3.27 1.17-6.84 1.463-11.002.878s-8.03-2.34-11.597-4.682c-5.65-4.096-9.218-9.07-10.704-15.215s-.298-11.996 3.865-17.848 9.218-8.778 15.462-9.363 12.192 1.17 17.544 4.974 8.92 8.485 10.1 14.045-.298 11.118-4.758 17.263zm2.973-4.4l10.705 7.607c4.46-6.144 4.757-10.533 1.2-13.167-1.784-1.17-3.568-1.463-5.65-.585-1.784 1.17-4.163 2.926-6.244 6.145zm21.4 37.453c1.2-2.048 3.27-3.5 5.65-4.4 2.676-.585 5.055-.292 7.136.878 2.38 1.17 3.568 3.22 4.46 5.852.595 2.633.298 4.974-.892 7.022-1.2 2.34-3.27 3.5-5.947 4.4-2.676.585-5.055.293-7.136-.878s-3.568-3.218-4.46-5.56c-.298-2.633 0-4.974 1.2-7.315zm52.036 38.915l-.595-58.52-.297-9.07c-.297-1.463-.595-2.634-1.487-3.804s-2.676-2.048-5.055-3.22l2.38-5.266 34.493 14.63-2.38 5.267c-4.758-2.048-7.73-2.048-8.92.293-.594 1.17-.892 3.804-.892 7.315l.595 34.82 25.275-23.7c1.784-1.755 3.27-3.218 3.865-4.974 1.2-2.926-.595-5.56-5.352-7.607l2.38-5.267 22.896 9.656-2.38 5.266c-2.676-1.17-5.055-1.17-6.84-.585-2.082.878-5.947 4.097-12.192 9.656l-39.844 36.867zm30.33 3.522c.892-2.34 2.38-4.097 4.757-5.267s4.758-1.17 7.137-.585 4.163 2.34 5.352 4.68 1.2 4.682.595 7.023c-.892 2.34-2.38 4.096-4.758 5.266s-4.757 1.17-7.136.293-4.163-2.34-5.352-4.682c-1.487-2.048-1.487-4.4-.595-6.73z" fill="#c03e2d"/></g></svg>